<?xml version="1.0" encoding="UTF-8" standalone="no"?>
<!DOCTYPE svg PUBLIC "-//W3C//DTD SVG 1.1//EN"
 "http://www.w3.org/Graphics/SVG/1.1/DTD/svg11.dtd">
<!-- Generated by graphviz version 15.1.0 (20260618.0150)
 -->
<!-- Title: modules Pages: 1 -->
<svg width="1011pt" height="379pt"
 viewBox="0.00 0.00 1011.00 379.00" xmlns="http://www.w3.org/2000/svg" xmlns:xlink="http://www.w3.org/1999/xlink">
<g id="graph0" class="graph" transform="scale(1 1) rotate(0) translate(4 375.06)">
<title>modules</title>
<g id="clust1" class="cluster">
<title>cluster_mapping</title>
<polygon fill="#9575cd" fill-opacity="0.062745" stroke="#9575cd" stroke-dasharray="5,2" points="307.55,-145 307.55,-328 454.2,-328 454.2,-145 307.55,-145"/>
<text xml:space="preserve" text-anchor="middle" x="419.95" y="-310.7" font-family="fixed" font-size="14.00" fill="#b5e4f4">mapping</text>
</g>
<g id="clust2" class="cluster">
<title>cluster_navigation</title>
<polygon fill="#aa96da" fill-opacity="0.062745" stroke="#aa96da" stroke-dasharray="5,2" points="670.1,-91 670.1,-328 840.75,-328 840.75,-91 670.1,-91"/>
<text xml:space="preserve" text-anchor="middle" x="802" y="-310.7" font-family="fixed" font-size="14.00" fill="#b5e4f4">navigation</text>
</g>
<g id="clust3" class="cluster">
<title>cluster_robot</title>
<polygon fill="#64b5f6" fill-opacity="0.062745" stroke="#64b5f6" stroke-dasharray="5,2" points="8,-203 8,-278 124.65,-278 124.65,-203 8,-203"/>
<text xml:space="preserve" text-anchor="middle" x="101.28" y="-260.7" font-family="fixed" font-size="14.00" fill="#b5e4f4">robot</text>
</g>
<g id="clust4" class="cluster">
<title>cluster_visualization</title>
<polygon fill="#7986cb" fill-opacity="0.062745" stroke="#7986cb" stroke-dasharray="5,2" points="300.8,-8 300.8,-137 460.95,-137 460.95,-8 300.8,-8"/>
<text xml:space="preserve" text-anchor="middle" x="416.2" y="-119.7" font-family="fixed" font-size="14.00" fill="#b5e4f4">visualization</text>
</g>
<!-- CostMapper -->
<g id="node1" class="node">
<title>CostMapper</title>
<polygon fill="#0b0f0f" stroke="#5c9ff0" points="420.7,-297 341.05,-297 341.05,-261 420.7,-261 420.7,-297"/>
<text xml:space="preserve" text-anchor="middle" x="380.88" y="-273.98" font-family="fixed" font-size="12.00" fill="#b5e4f4">CostMapper</text>
</g>
<!-- chan_global_costmap_OccupancyGrid -->
<g id="node13" class="node">
<title>chan_global_costmap_OccupancyGrid</title>
<polygon fill="#ff8a65" fill-opacity="0.207843" stroke="#ff8a65" points="639.02,-288.23 488.95,-288.23 488.95,-269.77 642.1,-269.77 642.1,-285.15 639.02,-288.23"/>
<polyline fill="none" stroke="#ff8a65" points="639.02,-288.23 639.02,-285.15"/>
<polyline fill="none" stroke="#ff8a65" points="642.1,-285.15 639.02,-285.15"/>
<text xml:space="preserve" text-anchor="middle" x="565.52" y="-275.12" font-family="fixed" font-size="10.00" fill="#b5e4f4">global_costmap:OccupancyGrid</text>
</g>
<!-- CostMapper&#45;&gt;chan_global_costmap_OccupancyGrid -->
<g id="edge6" class="edge">
<title>CostMapper&#45;&gt;chan_global_costmap_OccupancyGrid</title>
<path fill="none" stroke="#ff8a65" d="M421.06,-279C440.76,-279 465.34,-279 488.56,-279"/>
</g>
<!-- RelocalizationModule -->
<g id="node2" class="node">
<title>RelocalizationModule</title>
<polygon fill="#0b0f0f" stroke="#5c9ff0" points="446.2,-243 315.55,-243 315.55,-207 446.2,-207 446.2,-243"/>
<text xml:space="preserve" text-anchor="middle" x="380.88" y="-219.97" font-family="fixed" font-size="12.00" fill="#b5e4f4">RelocalizationModule</text>
</g>
<!-- chan_merged_map_PointCloud2 -->
<g id="node18" class="node">
<title>chan_merged_map_PointCloud2</title>
<polygon fill="#4db6ac" fill-opacity="0.207843" stroke="#4db6ac" points="625.9,-252.22 502.07,-252.22 502.07,-233.78 628.98,-233.78 628.98,-249.15 625.9,-252.22"/>
<polyline fill="none" stroke="#4db6ac" points="625.9,-252.22 625.9,-249.15"/>
<polyline fill="none" stroke="#4db6ac" points="628.98,-249.15 625.9,-249.15"/>
<text xml:space="preserve" text-anchor="middle" x="565.52" y="-239.12" font-family="fixed" font-size="10.00" fill="#b5e4f4">merged_map:PointCloud2</text>
</g>
<!-- RelocalizationModule&#45;&gt;chan_merged_map_PointCloud2 -->
<g id="edge21" class="edge">
<title>RelocalizationModule&#45;&gt;chan_merged_map_PointCloud2</title>
<path fill="none" stroke="#4db6ac" d="M446.53,-231.37C464.49,-233.14 483.95,-235.06 501.8,-236.82"/>
</g>
<!-- VoxelGridMapper -->
<g id="node3" class="node">
<title>VoxelGridMapper</title>
<polygon fill="#0b0f0f" stroke="#5c9ff0" points="434.2,-189 327.55,-189 327.55,-153 434.2,-153 434.2,-189"/>
<text xml:space="preserve" text-anchor="middle" x="380.88" y="-165.97" font-family="fixed" font-size="12.00" fill="#b5e4f4">VoxelGridMapper</text>
</g>
<!-- chan_global_map_PointCloud2 -->
<g id="node14" class="node">
<title>chan_global_map_PointCloud2</title>
<polygon fill="#a1887f" fill-opacity="0.207843" stroke="#a1887f" points="269.73,-234.22 152.65,-234.22 152.65,-215.78 272.8,-215.78 272.8,-231.15 269.73,-234.22"/>
<polyline fill="none" stroke="#a1887f" points="269.73,-234.22 269.73,-231.15"/>
<polyline fill="none" stroke="#a1887f" points="272.8,-231.15 269.73,-231.15"/>
<text xml:space="preserve" text-anchor="middle" x="212.73" y="-221.12" font-family="fixed" font-size="10.00" fill="#b5e4f4">global_map:PointCloud2</text>
</g>
<!-- VoxelGridMapper&#45;&gt;chan_global_map_PointCloud2 -->
<g id="edge10" class="edge">
<title>VoxelGridMapper&#45;&gt;chan_global_map_PointCloud2</title>
<path fill="none" stroke="#a1887f" d="M327.25,-188.1C299.58,-197.1 266.67,-207.79 243.43,-215.35"/>
</g>
<!-- MovementManager -->
<g id="node4" class="node">
<title>MovementManager</title>
<polygon fill="#0b0f0f" stroke="#5c9ff0" points="814,-135 696.85,-135 696.85,-99 814,-99 814,-135"/>
<text xml:space="preserve" text-anchor="middle" x="755.42" y="-111.97" font-family="fixed" font-size="12.00" fill="#b5e4f4">MovementManager</text>
</g>
<!-- chan_cmd_vel_Twist -->
<g id="node12" class="node">
<title>chan_cmd_vel_Twist</title>
<polygon fill="#4db6ac" fill-opacity="0.207843" stroke="#4db6ac" points="971.57,-189.22 897.25,-189.22 897.25,-170.78 974.65,-170.78 974.65,-186.15 971.57,-189.22"/>
<polyline fill="none" stroke="#4db6ac" points="971.57,-189.22 971.57,-186.15"/>
<polyline fill="none" stroke="#4db6ac" points="974.65,-186.15 971.57,-186.15"/>
<text xml:space="preserve" text-anchor="middle" x="935.95" y="-176.12" font-family="fixed" font-size="10.00" fill="#b5e4f4">cmd_vel:Twist</text>
</g>
<!-- MovementManager&#45;&gt;chan_cmd_vel_Twist -->
<g id="edge4" class="edge">
<title>MovementManager&#45;&gt;chan_cmd_vel_Twist</title>
<path fill="none" stroke="#4db6ac" d="M814.17,-135.02C823.1,-137.94 832.19,-141 840.75,-144 864.7,-152.41 891.74,-162.84 910.69,-170.31"/>
</g>
<!-- chan_stop_movement_Bool -->
<g id="node20" class="node">
<title>chan_stop_movement_Bool</title>
<polygon fill="#95e1d3" fill-opacity="0.207843" stroke="#95e1d3" points="615.77,-180.22 512.2,-180.22 512.2,-161.78 618.85,-161.78 618.85,-177.15 615.77,-180.22"/>
<polyline fill="none" stroke="#95e1d3" points="615.77,-180.22 615.77,-177.15"/>
<polyline fill="none" stroke="#95e1d3" points="618.85,-177.15 615.77,-177.15"/>
<text xml:space="preserve" text-anchor="middle" x="565.52" y="-167.12" font-family="fixed" font-size="10.00" fill="#b5e4f4">stop_movement:Bool</text>
</g>
<!-- MovementManager&#45;&gt;chan_stop_movement_Bool -->
<g id="edge25" class="edge">
<title>MovementManager&#45;&gt;chan_stop_movement_Bool</title>
<path fill="none" stroke="#95e1d3" d="M696.42,-133.67C664.82,-142.75 626.82,-153.67 600.12,-161.35"/>
</g>
<!-- PatrollingModule -->
<g id="node5" class="node">
<title>PatrollingModule</title>
<polygon fill="#0b0f0f" stroke="#5c9ff0" points="808,-297 702.85,-297 702.85,-261 808,-261 808,-297"/>
<text xml:space="preserve" text-anchor="middle" x="755.42" y="-273.98" font-family="fixed" font-size="12.00" fill="#b5e4f4">PatrollingModule</text>
</g>
<!-- chan_goal_request_PoseStamped -->
<g id="node16" class="node">
<title>chan_goal_request_PoseStamped</title>
<polygon fill="#fff59d" fill-opacity="0.207843" stroke="#fff59d" points="1000.07,-234.22 868.75,-234.22 868.75,-215.78 1003.15,-215.78 1003.15,-231.15 1000.07,-234.22"/>
<polyline fill="none" stroke="#fff59d" points="1000.07,-234.22 1000.07,-231.15"/>
<polyline fill="none" stroke="#fff59d" points="1003.15,-231.15 1000.07,-231.15"/>
<text xml:space="preserve" text-anchor="middle" x="935.95" y="-221.12" font-family="fixed" font-size="10.00" fill="#b5e4f4">goal_request:PoseStamped</text>
</g>
<!-- PatrollingModule&#45;&gt;chan_goal_request_PoseStamped -->
<g id="edge17" class="edge">
<title>PatrollingModule&#45;&gt;chan_goal_request_PoseStamped</title>
<path fill="none" stroke="#fff59d" d="M808.06,-263.38C838.75,-254.1 876.7,-242.62 903.06,-234.65"/>
</g>
<!-- ReplanningAStarPlanner -->
<g id="node6" class="node">
<title>ReplanningAStarPlanner</title>
<polygon fill="#0b0f0f" stroke="#5c9ff0" points="829.75,-189 681.1,-189 681.1,-153 829.75,-153 829.75,-189"/>
<text xml:space="preserve" text-anchor="middle" x="755.42" y="-165.97" font-family="fixed" font-size="12.00" fill="#b5e4f4">ReplanningAStarPlanner</text>
</g>
<!-- chan_goal_reached_Bool -->
<g id="node15" class="node">
<title>chan_goal_reached_Bool</title>
<polygon fill="#dce775" fill-opacity="0.207843" stroke="#dce775" points="609.77,-216.22 518.2,-216.22 518.2,-197.78 612.85,-197.78 612.85,-213.15 609.77,-216.22"/>
<polyline fill="none" stroke="#dce775" points="609.77,-216.22 609.77,-213.15"/>
<polyline fill="none" stroke="#dce775" points="612.85,-213.15 609.77,-213.15"/>
<text xml:space="preserve" text-anchor="middle" x="565.52" y="-203.12" font-family="fixed" font-size="10.00" fill="#b5e4f4">goal_reached:Bool</text>
</g>
<!-- ReplanningAStarPlanner&#45;&gt;chan_goal_reached_Bool -->
<g id="edge13" class="edge">
<title>ReplanningAStarPlanner&#45;&gt;chan_goal_reached_Bool</title>
<path fill="none" stroke="#dce775" d="M680.73,-185.12C657.9,-189.49 633.4,-194.19 612.97,-198.1"/>
</g>
<!-- chan_nav_cmd_vel_Twist -->
<g id="node19" class="node">
<title>chan_nav_cmd_vel_Twist</title>
<polygon fill="#fff59d" fill-opacity="0.207843" stroke="#fff59d" points="982.07,-135.22 886.75,-135.22 886.75,-116.78 985.15,-116.78 985.15,-132.15 982.07,-135.22"/>
<polyline fill="none" stroke="#fff59d" points="982.07,-135.22 982.07,-132.15"/>
<polyline fill="none" stroke="#fff59d" points="985.15,-132.15 982.07,-132.15"/>
<text xml:space="preserve" text-anchor="middle" x="935.95" y="-122.12" font-family="fixed" font-size="10.00" fill="#b5e4f4">nav_cmd_vel:Twist</text>
</g>
<!-- ReplanningAStarPlanner&#45;&gt;chan_nav_cmd_vel_Twist -->
<g id="edge23" class="edge">
<title>ReplanningAStarPlanner&#45;&gt;chan_nav_cmd_vel_Twist</title>
<path fill="none" stroke="#fff59d" d="M829.81,-152.5C852.7,-146.73 877.03,-140.6 896.51,-135.69"/>
</g>
<!-- WavefrontFrontierExplorer -->
<g id="node7" class="node">
<title>WavefrontFrontierExplorer</title>
<polygon fill="#0b0f0f" stroke="#5c9ff0" points="832.75,-243 678.1,-243 678.1,-207 832.75,-207 832.75,-243"/>
<text xml:space="preserve" text-anchor="middle" x="755.42" y="-219.97" font-family="fixed" font-size="12.00" fill="#b5e4f4">WavefrontFrontierExplorer</text>
</g>
<!-- WavefrontFrontierExplorer&#45;&gt;chan_goal_request_PoseStamped -->
<g id="edge16" class="edge">
<title>WavefrontFrontierExplorer&#45;&gt;chan_goal_request_PoseStamped</title>
<path fill="none" stroke="#fff59d" d="M833.17,-225C844.89,-225 856.9,-225 868.38,-225"/>
</g>
<!-- GO2Connection -->
<g id="node8" class="node">
<title>GO2Connection</title>
<polygon fill="#0b0f0f" stroke="#5c9ff0" points="116.65,-247 16,-247 16,-211 116.65,-211 116.65,-247"/>
<text xml:space="preserve" text-anchor="middle" x="66.33" y="-223.97" font-family="fixed" font-size="12.00" fill="#b5e4f4">GO2Connection</text>
</g>
<!-- chan_lidar_PointCloud2 -->
<g id="node17" class="node">
<title>chan_lidar_PointCloud2</title>
<polygon fill="#f06292" fill-opacity="0.207843" stroke="#f06292" points="253.98,-189.22 168.4,-189.22 168.4,-170.78 257.05,-170.78 257.05,-186.15 253.98,-189.22"/>
<polyline fill="none" stroke="#f06292" points="253.98,-189.22 253.98,-186.15"/>
<polyline fill="none" stroke="#f06292" points="257.05,-186.15 253.98,-186.15"/>
<text xml:space="preserve" text-anchor="middle" x="212.73" y="-176.12" font-family="fixed" font-size="10.00" fill="#b5e4f4">lidar:PointCloud2</text>
</g>
<!-- GO2Connection&#45;&gt;chan_lidar_PointCloud2 -->
<g id="edge19" class="edge">
<title>GO2Connection&#45;&gt;chan_lidar_PointCloud2</title>
<path fill="none" stroke="#f06292" d="M117.02,-212.14C139.21,-204.61 164.55,-196.01 183.43,-189.6"/>
</g>
<!-- RerunBridgeModule -->
<g id="node9" class="node">
<title>RerunBridgeModule</title>
<polygon fill="#0b0f0f" stroke="#5c9ff0" points="442.07,-52 319.68,-52 319.68,-16 442.07,-16 442.07,-52"/>
<text xml:space="preserve" text-anchor="middle" x="380.88" y="-28.98" font-family="fixed" font-size="12.00" fill="#b5e4f4">RerunBridgeModule</text>
</g>
<!-- RerunWebSocketServer -->
<g id="node10" class="node">
<title>RerunWebSocketServer</title>
<polygon fill="#0b0f0f" stroke="#5c9ff0" points="452.95,-106 308.8,-106 308.8,-70 452.95,-70 452.95,-106"/>
<text xml:space="preserve" text-anchor="middle" x="380.88" y="-82.97" font-family="fixed" font-size="12.00" fill="#b5e4f4">RerunWebSocketServer</text>
</g>
<!-- chan_clicked_point_PointStamped -->
<g id="node11" class="node">
<title>chan_clicked_point_PointStamped</title>
<polygon fill="#ffcc80" fill-opacity="0.207843" stroke="#ffcc80" points="630.4,-133.22 497.57,-133.22 497.57,-114.78 633.48,-114.78 633.48,-130.15 630.4,-133.22"/>
<polyline fill="none" stroke="#ffcc80" points="630.4,-133.22 630.4,-130.15"/>
<polyline fill="none" stroke="#ffcc80" points="633.48,-130.15 630.4,-130.15"/>
<text xml:space="preserve" text-anchor="middle" x="565.52" y="-120.12" font-family="fixed" font-size="10.00" fill="#b5e4f4">clicked_point:PointStamped</text>
</g>
<!-- RerunWebSocketServer&#45;&gt;chan_clicked_point_PointStamped -->
<g id="edge1" class="edge">
<title>RerunWebSocketServer&#45;&gt;chan_clicked_point_PointStamped</title>
<path fill="none" stroke="#ffcc80" d="M453.28,-102.07C474.09,-106.18 496.35,-110.56 515.45,-114.33"/>
</g>
<!-- chan_tele_cmd_vel_Twist -->
<g id="node21" class="node">
<title>chan_tele_cmd_vel_Twist</title>
<polygon fill="#dce775" fill-opacity="0.207843" stroke="#dce775" points="611.65,-97.22 516.32,-97.22 516.32,-78.78 614.73,-78.78 614.73,-94.15 611.65,-97.22"/>
<polyline fill="none" stroke="#dce775" points="611.65,-97.22 611.65,-94.15"/>
<polyline fill="none" stroke="#dce775" points="614.73,-94.15 611.65,-94.15"/>
<text xml:space="preserve" text-anchor="middle" x="565.52" y="-84.12" font-family="fixed" font-size="10.00" fill="#b5e4f4">tele_cmd_vel:Twist</text>
</g>
<!-- RerunWebSocketServer&#45;&gt;chan_tele_cmd_vel_Twist -->
<g id="edge28" class="edge">
<title>RerunWebSocketServer&#45;&gt;chan_tele_cmd_vel_Twist</title>
<path fill="none" stroke="#dce775" d="M453.28,-88C474.29,-88 496.78,-88 516,-88"/>
</g>
<!-- chan_clicked_point_PointStamped&#45;&gt;MovementManager -->
<g id="edge3" class="edge">
<title>chan_clicked_point_PointStamped&#45;&gt;MovementManager</title>
<path fill="none" stroke="#ffcc80" d="M633.83,-121.49C650.51,-120.87 668.42,-120.2 685.2,-119.58"/>
<polygon fill="#ffcc80" stroke="#ffcc80" points="685.22,-123.08 695.09,-119.21 684.96,-116.09 685.22,-123.08"/>
</g>
<!-- chan_clicked_point_PointStamped&#45;&gt;ReplanningAStarPlanner -->
<g id="edge2" class="edge">
<title>chan_clicked_point_PointStamped&#45;&gt;ReplanningAStarPlanner</title>
<path fill="none" stroke="#ffcc80" d="M605,-133.62C623.73,-138.31 647.05,-144.14 669.65,-149.79"/>
<polygon fill="#ffcc80" stroke="#ffcc80" points="668.64,-153.15 679.19,-152.18 670.34,-146.36 668.64,-153.15"/>
</g>
<!-- chan_cmd_vel_Twist&#45;&gt;GO2Connection -->
<g id="edge5" class="edge">
<title>chan_cmd_vel_Twist&#45;&gt;GO2Connection</title>
<path fill="none" stroke="#4db6ac" d="M896.99,-188.44C886.52,-192.47 876.04,-198.38 868.75,-207 831.99,-250.47 884.27,-295.29 840.75,-332 747.47,-410.69 688.56,-346 566.52,-346 379.88,-346 379.88,-346 379.88,-346 274.93,-346 162.03,-287.43 104.96,-253.17"/>
<polygon fill="#4db6ac" stroke="#4db6ac" points="106.96,-250.29 96.6,-248.07 103.31,-256.26 106.96,-250.29"/>
</g>
<!-- chan_global_costmap_OccupancyGrid&#45;&gt;PatrollingModule -->
<g id="edge9" class="edge">
<title>chan_global_costmap_OccupancyGrid&#45;&gt;PatrollingModule</title>
<path fill="none" stroke="#ff8a65" d="M642.41,-279C658.64,-279 675.61,-279 691.3,-279"/>
<polygon fill="#ff8a65" stroke="#ff8a65" points="690.95,-282.5 700.95,-279 690.95,-275.5 690.95,-282.5"/>
</g>
<!-- chan_global_costmap_OccupancyGrid&#45;&gt;ReplanningAStarPlanner -->
<g id="edge7" class="edge">
<title>chan_global_costmap_OccupancyGrid&#45;&gt;ReplanningAStarPlanner</title>
<path fill="none" stroke="#ff8a65" d="M628.65,-269.37C633.49,-267.12 638.05,-264.36 642.1,-261 665.67,-241.42 647.29,-218.46 670.1,-198 671.02,-197.18 671.96,-196.38 672.92,-195.61"/>
<polygon fill="#ff8a65" stroke="#ff8a65" points="674.62,-198.69 680.88,-190.15 670.66,-192.92 674.62,-198.69"/>
</g>
<!-- chan_global_costmap_OccupancyGrid&#45;&gt;WavefrontFrontierExplorer -->
<g id="edge8" class="edge">
<title>chan_global_costmap_OccupancyGrid&#45;&gt;WavefrontFrontierExplorer</title>
<path fill="none" stroke="#ff8a65" d="M609.84,-269.29C620.43,-266.75 631.71,-263.9 642.1,-261 654.69,-257.48 657.65,-255.99 670.1,-252 675.23,-250.36 680.53,-248.65 685.87,-246.94"/>
<polygon fill="#ff8a65" stroke="#ff8a65" points="686.92,-250.28 695.37,-243.9 684.78,-243.62 686.92,-250.28"/>
</g>
<!-- chan_global_map_PointCloud2&#45;&gt;CostMapper -->
<g id="edge11" class="edge">
<title>chan_global_map_PointCloud2&#45;&gt;CostMapper</title>
<path fill="none" stroke="#a1887f" d="M243.43,-234.65C267.41,-242.45 301.68,-253.58 329.87,-262.75"/>
<polygon fill="#a1887f" stroke="#a1887f" points="328.71,-266.05 339.3,-265.81 330.87,-259.39 328.71,-266.05"/>
</g>
<!-- chan_global_map_PointCloud2&#45;&gt;RelocalizationModule -->
<g id="edge12" class="edge">
<title>chan_global_map_PointCloud2&#45;&gt;RelocalizationModule</title>
<path fill="none" stroke="#a1887f" d="M273.24,-225C283.12,-225 293.48,-225 303.7,-225"/>
<polygon fill="#a1887f" stroke="#a1887f" points="303.63,-228.5 313.63,-225 303.63,-221.5 303.63,-228.5"/>
</g>
<!-- chan_goal_reached_Bool&#45;&gt;PatrollingModule -->
<g id="edge15" class="edge">
<title>chan_goal_reached_Bool&#45;&gt;PatrollingModule</title>
<path fill="none" stroke="#dce775" d="M613.13,-213.99C623.06,-216.59 633.23,-220.15 642.1,-225 657.27,-233.3 655.26,-243.13 670.1,-252 676.83,-256.02 684.22,-259.51 691.74,-262.52"/>
<polygon fill="#dce775" stroke="#dce775" points="690.4,-265.75 700.99,-265.94 692.83,-259.19 690.4,-265.75"/>
</g>
<!-- chan_goal_reached_Bool&#45;&gt;WavefrontFrontierExplorer -->
<g id="edge14" class="edge">
<title>chan_goal_reached_Bool&#45;&gt;WavefrontFrontierExplorer</title>
<path fill="none" stroke="#dce775" d="M612.97,-211.45C629.17,-213 647.93,-214.8 666.38,-216.57"/>
<polygon fill="#dce775" stroke="#dce775" points="666.01,-220.05 676.3,-217.52 666.68,-213.08 666.01,-220.05"/>
</g>
<!-- chan_goal_request_PoseStamped&#45;&gt;ReplanningAStarPlanner -->
<g id="edge18" class="edge">
<title>chan_goal_request_PoseStamped&#45;&gt;ReplanningAStarPlanner</title>
<path fill="none" stroke="#fff59d" d="M902.83,-215.28C882.06,-209 854.17,-200.56 828.3,-192.74"/>
<polygon fill="#fff59d" stroke="#fff59d" points="829.4,-189.42 818.81,-189.87 827.37,-196.12 829.4,-189.42"/>
</g>
<!-- chan_lidar_PointCloud2&#45;&gt;VoxelGridMapper -->
<g id="edge20" class="edge">
<title>chan_lidar_PointCloud2&#45;&gt;VoxelGridMapper</title>
<path fill="none" stroke="#f06292" d="M257.38,-177.64C275.3,-176.66 296.41,-175.52 316.01,-174.46"/>
<polygon fill="#f06292" stroke="#f06292" points="316.04,-177.96 325.83,-173.93 315.66,-170.97 316.04,-177.96"/>
</g>
<!-- chan_merged_map_PointCloud2&#45;&gt;CostMapper -->
<g id="edge22" class="edge">
<title>chan_merged_map_PointCloud2&#45;&gt;CostMapper</title>
<path fill="none" stroke="#4db6ac" d="M515.29,-252.7C489.54,-257.78 458.07,-263.98 432.16,-269.09"/>
<polygon fill="#4db6ac" stroke="#4db6ac" points="431.68,-265.62 422.54,-270.98 433.03,-272.48 431.68,-265.62"/>
</g>
<!-- chan_nav_cmd_vel_Twist&#45;&gt;MovementManager -->
<g id="edge24" class="edge">
<title>chan_nav_cmd_vel_Twist&#45;&gt;MovementManager</title>
<path fill="none" stroke="#fff59d" d="M886.54,-123.56C867.84,-122.62 846.1,-121.52 825.81,-120.5"/>
<polygon fill="#fff59d" stroke="#fff59d" points="826.06,-117.01 815.9,-120 825.71,-124 826.06,-117.01"/>
</g>
<!-- chan_stop_movement_Bool&#45;&gt;ReplanningAStarPlanner -->
<g id="edge26" class="edge">
<title>chan_stop_movement_Bool&#45;&gt;ReplanningAStarPlanner</title>
<path fill="none" stroke="#95e1d3" d="M619.12,-171C634.79,-171 652.38,-171 669.57,-171"/>
<polygon fill="#95e1d3" stroke="#95e1d3" points="669.26,-174.5 679.26,-171 669.26,-167.5 669.26,-174.5"/>
</g>
<!-- chan_stop_movement_Bool&#45;&gt;WavefrontFrontierExplorer -->
<g id="edge27" class="edge">
<title>chan_stop_movement_Bool&#45;&gt;WavefrontFrontierExplorer</title>
<path fill="none" stroke="#95e1d3" d="M609.84,-180.71C620.43,-183.25 631.71,-186.1 642.1,-189 654.69,-192.52 657.65,-194.01 670.1,-198 675.23,-199.64 680.53,-201.35 685.87,-203.06"/>
<polygon fill="#95e1d3" stroke="#95e1d3" points="684.78,-206.38 695.37,-206.1 686.92,-199.72 684.78,-206.38"/>
</g>
<!-- chan_tele_cmd_vel_Twist&#45;&gt;MovementManager -->
<g id="edge29" class="edge">
<title>chan_tele_cmd_vel_Twist&#45;&gt;MovementManager</title>
<path fill="none" stroke="#dce775" d="M614.91,-95.47C636.31,-98.77 661.87,-102.72 685.23,-106.32"/>
<polygon fill="#dce775" stroke="#dce775" points="684.58,-109.76 695,-107.83 685.65,-102.84 684.58,-109.76"/>
</g>
</g>
</svg>
